<?xml version="1.0" encoding="UTF-8" standalone="no"?>
<!-- Created with Inkscape (http://www.inkscape.org/) -->

<svg
   xmlns:dc="http://purl.org/dc/elements/1.1/"
   xmlns:cc="http://creativecommons.org/ns#"
   xmlns:rdf="http://www.w3.org/1999/02/22-rdf-syntax-ns#"
   xmlns:svg="http://www.w3.org/2000/svg"
   xmlns="http://www.w3.org/2000/svg"
   xmlns:sodipodi="http://sodipodi.sourceforge.net/DTD/sodipodi-0.dtd"
   xmlns:inkscape="http://www.inkscape.org/namespaces/inkscape"
   width="185mm"
   height="87mm"
   viewBox="0 0 185 87"
   version="1.1"
   id="svg8"
   inkscape:version="0.92.5 (2060ec1f9f, 2020-04-08)"
   sodipodi:docname="amin.svg">
  <defs
     id="defs2">
    <marker
       inkscape:isstock="true"
       style="overflow:visible"
       id="marker2569"
       refX="0"
       refY="0"
       orient="auto"
       inkscape:stockid="Arrow1Mstart">
      <path
         transform="matrix(0.4,0,0,0.4,4,0)"
         style="fill:#000000;fill-opacity:1;fill-rule:evenodd;stroke:#000000;stroke-width:1.00000003pt;stroke-opacity:1"
         d="M 0,0 5,-5 -12.5,0 5,5 Z"
         id="path2567"
         inkscape:connector-curvature="0" />
    </marker>
    <marker
       inkscape:isstock="true"
       style="overflow:visible"
       id="marker2469"
       refX="0"
       refY="0"
       orient="auto"
       inkscape:stockid="Arrow1Mstart">
      <path
         transform="matrix(0.4,0,0,0.4,4,0)"
         style="fill:#000000;fill-opacity:1;fill-rule:evenodd;stroke:#000000;stroke-width:1.00000003pt;stroke-opacity:1"
         d="M 0,0 5,-5 -12.5,0 5,5 Z"
         id="path2467"
         inkscape:connector-curvature="0" />
    </marker>
    <marker
       inkscape:isstock="true"
       style="overflow:visible"
       id="marker2375"
       refX="0"
       refY="0"
       orient="auto"
       inkscape:stockid="Arrow1Mstart">
      <path
         transform="matrix(0.4,0,0,0.4,4,0)"
         style="fill:#000000;fill-opacity:1;fill-rule:evenodd;stroke:#000000;stroke-width:1.00000003pt;stroke-opacity:1"
         d="M 0,0 5,-5 -12.5,0 5,5 Z"
         id="path2373"
         inkscape:connector-curvature="0" />
    </marker>
    <marker
       inkscape:isstock="true"
       style="overflow:visible"
       id="marker2287"
       refX="0"
       refY="0"
       orient="auto"
       inkscape:stockid="Arrow1Mstart">
      <path
         transform="matrix(0.4,0,0,0.4,4,0)"
         style="fill:#000000;fill-opacity:1;fill-rule:evenodd;stroke:#000000;stroke-width:1.00000003pt;stroke-opacity:1"
         d="M 0,0 5,-5 -12.5,0 5,5 Z"
         id="path2285"
         inkscape:connector-curvature="0" />
    </marker>
    <marker
       inkscape:isstock="true"
       style="overflow:visible"
       id="marker2151"
       refX="0"
       refY="0"
       orient="auto"
       inkscape:stockid="Arrow1Mend">
      <path
         transform="matrix(-0.4,0,0,-0.4,-4,0)"
         style="fill:#000000;fill-opacity:1;fill-rule:evenodd;stroke:#000000;stroke-width:1.00000003pt;stroke-opacity:1"
         d="M 0,0 5,-5 -12.5,0 5,5 Z"
         id="path2149"
         inkscape:connector-curvature="0" />
    </marker>
    <marker
       inkscape:stockid="Arrow1Mend"
       orient="auto"
       refY="0"
       refX="0"
       id="marker1604"
       style="overflow:visible"
       inkscape:isstock="true"
       inkscape:collect="always">
      <path
         id="path1602"
         d="M 0,0 5,-5 -12.5,0 5,5 Z"
         style="fill:#000000;fill-opacity:1;fill-rule:evenodd;stroke:#000000;stroke-width:1.00000003pt;stroke-opacity:1"
         transform="matrix(-0.4,0,0,-0.4,-4,0)"
         inkscape:connector-curvature="0" />
    </marker>
    <marker
       inkscape:isstock="true"
       style="overflow:visible"
       id="marker1540"
       refX="0"
       refY="0"
       orient="auto"
       inkscape:stockid="Arrow1Mend"
       inkscape:collect="always">
      <path
         transform="matrix(-0.4,0,0,-0.4,-4,0)"
         style="fill:#000000;fill-opacity:1;fill-rule:evenodd;stroke:#000000;stroke-width:1.00000003pt;stroke-opacity:1"
         d="M 0,0 5,-5 -12.5,0 5,5 Z"
         id="path1538"
         inkscape:connector-curvature="0" />
    </marker>
    <marker
       inkscape:stockid="Arrow1Mend"
       orient="auto"
       refY="0"
       refX="0"
       id="marker1482"
       style="overflow:visible"
       inkscape:isstock="true"
       inkscape:collect="always">
      <path
         id="path1480"
         d="M 0,0 5,-5 -12.5,0 5,5 Z"
         style="fill:#000000;fill-opacity:1;fill-rule:evenodd;stroke:#000000;stroke-width:1.00000003pt;stroke-opacity:1"
         transform="matrix(-0.4,0,0,-0.4,-4,0)"
         inkscape:connector-curvature="0" />
    </marker>
    <marker
       inkscape:isstock="true"
       style="overflow:visible"
       id="marker1430"
       refX="0"
       refY="0"
       orient="auto"
       inkscape:stockid="Arrow1Mend"
       inkscape:collect="always">
      <path
         transform="matrix(-0.4,0,0,-0.4,-4,0)"
         style="fill:#000000;fill-opacity:1;fill-rule:evenodd;stroke:#000000;stroke-width:1.00000003pt;stroke-opacity:1"
         d="M 0,0 5,-5 -12.5,0 5,5 Z"
         id="path1428"
         inkscape:connector-curvature="0" />
    </marker>
    <marker
       inkscape:stockid="Arrow1Mend"
       orient="auto"
       refY="0"
       refX="0"
       id="Arrow1Mend"
       style="overflow:visible"
       inkscape:isstock="true"
       inkscape:collect="always">
      <path
         id="path1033"
         d="M 0,0 5,-5 -12.5,0 5,5 Z"
         style="fill:#000000;fill-opacity:1;fill-rule:evenodd;stroke:#000000;stroke-width:1.00000003pt;stroke-opacity:1"
         transform="matrix(-0.4,0,0,-0.4,-4,0)"
         inkscape:connector-curvature="0" />
    </marker>
    <marker
       inkscape:stockid="Arrow1Mstart"
       orient="auto"
       refY="0"
       refX="0"
       id="Arrow1Mstart"
       style="overflow:visible"
       inkscape:isstock="true"
       inkscape:collect="always">
      <path
         id="path1030"
         d="M 0,0 5,-5 -12.5,0 5,5 Z"
         style="fill:#000000;fill-opacity:1;fill-rule:evenodd;stroke:#000000;stroke-width:1.00000003pt;stroke-opacity:1"
         transform="matrix(0.4,0,0,0.4,4,0)"
         inkscape:connector-curvature="0" />
    </marker>
    <marker
       inkscape:stockid="Arrow1Sstart"
       orient="auto"
       refY="0"
       refX="0"
       id="marker1320"
       style="overflow:visible"
       inkscape:isstock="true">
      <path
         id="path1318"
         d="M 0,0 5,-5 -12.5,0 5,5 Z"
         style="fill:#000000;fill-opacity:1;fill-rule:evenodd;stroke:#000000;stroke-width:1.00000003pt;stroke-opacity:1"
         transform="matrix(0.2,0,0,0.2,1.2,0)"
         inkscape:connector-curvature="0" />
    </marker>
    <marker
       inkscape:stockid="Arrow1Sstart"
       orient="auto"
       refY="0"
       refX="0"
       id="Arrow1Sstart"
       style="overflow:visible"
       inkscape:isstock="true">
      <path
         id="path1036"
         d="M 0,0 5,-5 -12.5,0 5,5 Z"
         style="fill:#000000;fill-opacity:1;fill-rule:evenodd;stroke:#000000;stroke-width:1.00000003pt;stroke-opacity:1"
         transform="matrix(0.2,0,0,0.2,1.2,0)"
         inkscape:connector-curvature="0" />
    </marker>
    <clipPath
       id="clipPath1774"
       clipPathUnits="userSpaceOnUse">
      <path
         inkscape:connector-curvature="0"
         id="path1772"
         d="m 1290,2090 c 0,-176.73 -143.27,-320 -320,-320 -176.73,0 -320,143.27 -320,320 0,176.73 143.27,320 320,320 176.73,0 320,-143.27 320,-320 z" />
    </clipPath>
    <clipPath
       id="clipPath1784"
       clipPathUnits="userSpaceOnUse">
      <path
         inkscape:connector-curvature="0"
         id="path1782"
         d="m 1295,2090 v 0 c 0,-179.49 -145.51,-325 -325,-325 v 5 -5 c -179.492,0 -325,145.51 -325,325 h 5 -5 c 0,179.49 145.508,325 325,325 v -5 5 c 179.49,0 325,-145.51 325,-325 h -5 5 m -10,0 v 0 c 0,173.97 -141.03,315 -315,315 v 0 c -173.969,0 -315,-141.03 -315,-315 v 0 c 0,-173.97 141.031,-315 315,-315 v 0 c 173.97,0 315,141.03 315,315 z" />
    </clipPath>
    <clipPath
       id="clipPath1794"
       clipPathUnits="userSpaceOnUse">
      <path
         inkscape:connector-curvature="0"
         id="path1792"
         d="m 10,2095 v 0 h 645 v -10 H 650 10 5 v 10 z" />
    </clipPath>
    <clipPath
       id="clipPath1804"
       clipPathUnits="userSpaceOnUse">
      <path
         inkscape:connector-curvature="0"
         id="path1802"
         d="m 355,2090 -50,-20 10,20 -10,20 z" />
    </clipPath>
    <clipPath
       id="clipPath1814"
       clipPathUnits="userSpaceOnUse">
      <path
         inkscape:connector-curvature="0"
         id="path1812"
         d="m 356.859,2085.36 v 0 l -50,-20 -12.211,-4.89 5.883,11.77 10,20 4.469,-2.24 -4.469,-2.24 -10,20 -5.883,11.77 12.211,-4.89 50,-20 11.602,-4.64 -11.602,-4.64 m -3.718,9.28 1.859,-4.64 -1.859,-4.64 -50,20 1.859,4.64 4.469,2.24 10,-20 1.121,-2.24 -1.121,-2.24 -10,-20 -4.469,2.24 -1.859,4.64 z" />
    </clipPath>
    <clipPath
       id="clipPath1824"
       clipPathUnits="userSpaceOnUse">
      <path
         inkscape:connector-curvature="0"
         id="path1822"
         d="m 1290,2095 v 0 h 485 v -10 h -5 -480 -5 v 10 z" />
    </clipPath>
    <clipPath
       id="clipPath1834"
       clipPathUnits="userSpaceOnUse">
      <path
         inkscape:connector-curvature="0"
         id="path1832"
         d="m 1555,2090 -50,-20 10,20 -10,20 z" />
    </clipPath>
    <clipPath
       id="clipPath1844"
       clipPathUnits="userSpaceOnUse">
      <path
         inkscape:connector-curvature="0"
         id="path1842"
         d="m 1556.86,2085.36 v 0 l -50,-20 -12.21,-4.89 5.88,11.77 10,20 4.47,-2.24 -4.47,-2.24 -10,20 -5.88,11.77 12.21,-4.89 50,-20 11.6,-4.64 -11.6,-4.64 m -3.72,9.28 1.86,-4.64 -1.86,-4.64 -50,20 1.86,4.64 4.47,2.24 10,-20 1.12,-2.24 -1.12,-2.24 -10,-20 -4.47,2.24 -1.86,4.64 z" />
    </clipPath>
    <clipPath
       id="clipPath1854"
       clipPathUnits="userSpaceOnUse">
      <path
         inkscape:connector-curvature="0"
         id="path1852"
         d="m 3047.67,974.422 v 0 c 32.12,16.93 58.84,52.388 33.02,101.918 l 4.43,2.31 -4.43,-2.31 c -25.76,49.39 -66.51,50.83 -98.22,34.29 v 0 c -32.89,-17.15 -52.24,-50.88 -41.43,-71.6 v 0 c 0.27,-0.53 0.57,-1.06 0.89,-1.58 v 0 0 c 11.01,-18.01 44.03,-19.1 72.81,-1.5 v 0 c 31.34,19.17 53.25,58.82 20.54,112.3 v 0 c -3.17,5.18 -6.86,10.51 -11.12,15.97 v 0 0 c -44.4,56.93 -90.12,51.36 -119.2,28.68 v 0 c -28.27,-22.05 -39.31,-57.91 -25.69,-75.38 v 0 c 0.58,-0.75 1.22,-1.48 1.9,-2.17 l -3.57,-3.51 3.57,3.51 c 14.78,-15.07 47.2,-8.69 71.28,14.93 v 0 c 26.22,25.74 38.63,69.3 -5.27,114.04 v 0 c -4.26,4.34 -9.06,8.7 -14.44,13.06 l 3.15,3.89 -3.15,-3.89 c -56.08,45.47 -99.37,29.75 -122.59,1.11 v 0 c -22.58,-27.85 -25.27,-65.28 -8.06,-79.23 v 0 c 0.74,-0.6 1.52,-1.17 2.34,-1.69 v 0 0 c 17.8,-11.35 47.95,2.16 66.08,30.6 v 0 c 19.76,30.97 22.05,76.21 -30.8,109.92 v 0 c -5.13,3.27 -10.79,6.44 -17.01,9.48 v 0 0 c -64.88,31.68 -103.52,6.61 -119.7,-26.53 v 0 c -15.73,-32.22 -9.91,-69.29 9.99,-79.01 v 0 c 0.86,-0.42 1.75,-0.79 2.67,-1.12 l -1.68,-4.71 1.68,4.71 c 19.89,-7.05 46.22,12.9 57.49,44.69 v 0 c 12.27,34.63 4.32,79.23 -54.77,100.17 v 0 c -5.73,2.03 -11.95,3.85 -18.7,5.41 l 1.13,4.87 -1.13,-4.87 c -70.34,16.25 -102.35,-16.87 -110.65,-52.8 v 0 c -8.07,-34.93 5.94,-69.75 27.52,-74.73 v 0 c 0.93,-0.22 1.88,-0.38 2.85,-0.49 v 0 0 c 20.97,-2.39 42.13,22.97 45.95,56.48 v 0 c 4.17,36.51 -13.63,78.17 -75.91,85.27 v 0 c -6.04,0.69 -12.51,1.05 -19.44,1.05 v 5 -5 c -72.2,0 -95.92,-39.47 -95.92,-76.35 v 0 c 0,-35.85 21.49,-66.62 43.64,-66.62 v 0 c 0.95,0 1.91,0.06 2.88,0.17 v 0 0 c 20.97,2.39 35.88,31.87 32.06,65.38 v 0 c -4.16,36.51 -30.88,73.09 -93.16,65.99 v 0 c -6.04,-0.69 -12.43,-1.8 -19.18,-3.35 v 0 0 c -70.34,-16.26 -84.57,-60.06 -76.27,-95.99 v 0 c 8.07,-34.94 35.94,-60.07 57.52,-55.09 v 0 c 0.93,0.22 1.86,0.49 2.77,0.81 l 1.68,-4.71 -1.68,4.71 c 19.9,7.05 27.79,39.13 16.52,70.93 v 0 c -12.28,34.63 -46.54,64.25 -105.63,43.31 v 0 c -5.73,-2.03 -11.71,-4.54 -17.93,-7.58 l -2.19,4.49 2.19,-4.49 c -64.88,-31.68 -68.88,-77.56 -52.7,-110.7 v 0 c 15.73,-32.22 48.54,-50.43 68.45,-40.72 v 0 c 0.85,0.42 1.69,0.89 2.52,1.42 l 2.69,-4.22 -2.69,4.22 c 17.79,11.35 18.26,44.38 0.12,72.82 v 0 c -19.76,30.98 -59.82,52.13 -112.67,18.42 v 0 c -5.13,-3.27 -10.38,-7.06 -15.76,-11.43 l -3.15,3.89 3.15,-3.89 c -56.08,-45.47 -49.65,-91.07 -26.43,-119.72 v 0 c 22.59,-27.85 58.65,-38.21 75.86,-24.26 v 0 c 0.74,0.6 1.45,1.25 2.14,1.95 l 3.57,-3.51 -3.57,3.51 c 14.78,15.06 7.79,47.35 -16.28,70.97 v 0 c -26.23,25.74 -70.02,37.33 -113.92,-7.42 v 0 c -4.26,-4.34 -8.53,-9.22 -12.79,-14.68 v 0 0 c -44.4,-56.92 -27.87,-99.91 1.21,-122.59 v 0 c 28.28,-22.05 65.75,-24.03 79.37,-6.56 v 0 c 0.59,0.75 1.14,1.54 1.65,2.38 v 0 0 c 11.84,19.36 -4.32,51.29 -34.86,69.97 v 0 c -31.01,18.96 -72.47,20.86 -99.8,-23.83 v 0 c -1.4,-2.29 -2.77,-4.71 -4.1,-7.25 l -4.43,2.31 4.43,-2.31 c -25.82,-49.53 0.9,-84.988 33.02,-101.918 l 4.42,-2.332 -4.66,-8.84 -4.42,2.332 c -35.07,18.469 -66.5,59.248 -37.22,115.378 v 0 0 c 1.43,2.74 2.91,5.36 4.43,7.85 v 0 c 31.01,50.7 79.23,48.12 113.55,27.14 v 0 c 31.11,-19.03 54.89,-56.37 38.17,-83.72 l -4.27,2.61 4.27,-2.61 c -0.71,-1.16 -1.47,-2.26 -2.29,-3.31 v 0 c -19.1,-24.48 -64.03,-18.09 -93.41,4.82 v 0 c -33.68,26.27 -50.55,75.6 -2.94,136.63 l 3.94,-3.07 -3.94,3.07 c 4.47,5.74 8.99,10.91 13.53,15.54 v 0 c 48.25,49.17 98.4,36.66 128.06,7.55 v 0 c 24.81,-24.34 37.6,-63.53 16.42,-85.12 v 0 c -0.95,-0.96 -1.95,-1.87 -2.98,-2.71 v 0 c -24.12,-19.55 -66.46,-3.2 -89.92,25.74 v 0 c -26.9,33.17 -32.24,85.03 27.89,133.78 v 0 c 5.65,4.58 11.21,8.6 16.68,12.09 v 0 c 58.08,37.04 104.13,13.57 126.48,-21.47 v 0 c 18.68,-29.3 22.33,-70.37 -3.18,-86.63 v 0 0 c -1.14,-0.73 -2.31,-1.39 -3.51,-1.97 v 0 c -27.9,-13.62 -65.47,11.84 -81.81,45.31 v 0 c -18.74,38.39 -12.26,90.11 57.29,124.08 v 0 c 6.54,3.19 12.87,5.85 18.98,8.02 v 0 c 64.93,23.01 104.51,-10.23 118.39,-49.4 v 0 c 11.61,-32.75 5.91,-73.59 -22.59,-83.69 v 0 c -1.28,-0.46 -2.57,-0.83 -3.87,-1.13 v 0 c -30.25,-6.99 -61.13,26.28 -69.51,62.58 v 0 c -9.62,41.61 8.34,90.55 83.76,107.98 l 1.12,-4.87 -1.12,4.87 c 7.09,1.64 13.85,2.81 20.29,3.54 v 0 c 68.45,7.81 99.53,-33.49 104.24,-74.79 v 0 c 3.93,-34.52 -10.81,-73.02 -40.86,-76.45 l -0.57,4.97 0.57,-4.97 c -1.35,-0.15 -2.69,-0.23 -4.02,-0.23 v 0 c -31.05,0 -53.64,39.37 -53.64,76.62 v 0 c 0,42.71 28.51,86.35 105.92,86.35 v 0 0 c 7.28,0 14.13,-0.38 20.57,-1.11 v 0 c 68.44,-7.81 89.43,-55.04 84.72,-96.34 v 0 c -3.94,-34.52 -26.97,-68.72 -57.03,-65.29 l 0.57,4.97 -0.57,-4.97 c -1.34,0.15 -2.66,0.38 -3.96,0.68 v 0 c -30.25,6.99 -43.4,50.44 -35.01,86.73 v 0 c 9.61,41.62 47.22,77.72 122.64,60.29 v 0 c 7.09,-1.64 13.68,-3.56 19.79,-5.72 v 0 c 64.93,-23.02 74.74,-73.76 60.85,-112.94 v 0 c -11.6,-32.75 -41.75,-60.88 -70.26,-50.77 v 0 c -1.27,0.45 -2.51,0.97 -3.71,1.55 v 0 c -27.9,13.63 -30.93,58.92 -14.58,92.39 v 0 c 18.74,38.38 63.51,65.09 133.07,31.13 l -2.2,-4.5 2.2,4.5 c 6.54,-3.2 12.53,-6.55 17.99,-10.04 v 0 c 58.08,-37.04 56.21,-88.69 33.86,-123.73 v 0 c -18.68,-29.3 -54.38,-49.92 -79.88,-33.65 l 2.68,4.21 -2.68,-4.21 c -1.15,0.73 -2.23,1.51 -3.27,2.35 v 0 c -24.12,19.55 -16.87,64.36 6.59,93.3 v 0 c 26.9,33.17 76.54,49.11 136.66,0.36 v 0 c 5.65,-4.58 10.73,-9.19 15.28,-13.82 v 0 c 48.24,-49.17 34.8,-99.08 5.13,-128.19 v 0 c -24.8,-24.33 -64.23,-36.39 -85.41,-14.8 v 0 c -0.95,0.97 -1.84,1.98 -2.66,3.03 v 0 c -19.09,24.48 -1.94,66.51 27.43,89.42 v 0 c 33.68,26.27 85.63,30.62 133.23,-30.42 l -3.94,-3.07 3.94,3.07 c 4.48,-5.73 8.39,-11.37 11.77,-16.91 v 0 c 35.94,-58.76 11.6,-104.36 -23.86,-126.04 v 0 c -29.64,-18.13 -70.77,-21 -86.55,4.81 l 4.27,2.61 -4.27,-2.61 c -0.44,0.71 -0.85,1.44 -1.23,2.18 v 0 c -15.08,28.9 12,67.52 45.68,85.09 v 0 c 35.67,18.6 82.93,16.63 111.7,-38.54 v 0 0 c 29.28,-56.13 -2.15,-96.909 -37.22,-115.378 l -4.42,-2.332 -4.66,8.84 z" />
    </clipPath>
    <clipPath
       id="clipPath1864"
       clipPathUnits="userSpaceOnUse">
      <path
         inkscape:connector-curvature="0"
         id="path1862"
         d="m 1927.85,5.48047 v 0 C 1892.14,22.4492 1859.42,60.6523 1883.42,116.789 l 4.6,-1.969 -4.6,1.969 c 24.21,56.652 73.09,61.82 110.67,45.762 v 0 c 34.05,-14.559 62.88,-48.922 49.88,-79.3401 v 0 c -0.26,-0.6211 -0.55,-1.2421 -0.85,-1.8515 v 0 0 c -13.56,-27.6992 -53.11,-28.8672 -83.69,-13.8906 v 0 c -38.06,18.6406 -67.69,63.8442 -36.62,127.2732 v 0 c 2.12,4.34 4.53,8.75 7.23,13.25 v 0 0 c 39.51,65.727 93.76,66.918 130.87,44.61 v 0 c 30.8,-18.52 51.99,-55.43 35.83,-82.313 v 0 c -0.56,-0.93 -1.17,-1.848 -1.82,-2.75 l -4.05,2.93 4.05,-2.93 c -18.1,-24.976 -57.26,-19.379 -84.83,0.602 v 0 c -34.33,24.871 -55.8,74.461 -14.36,131.66 v 0 c 2.84,3.91 5.96,7.851 9.39,11.82 l 3.78,-3.269 -3.78,3.269 c 50.16,58.02 103.81,49.918 136.57,21.609 v 0 c 27.18,-23.511 41.76,-63.5 21.25,-87.218 v 0 c -0.71,-0.832 -1.47,-1.633 -2.27,-2.403 l -3.48,3.582 3.48,-3.582 c -22.09,-21.519 -59.72,-9.32 -83.48,15.082 v 0 c -29.57,30.36 -42.26,82.891 8.34,132.168 v 0 c 3.46,3.371 7.21,6.723 11.26,10.039 l 3.17,-3.859 -3.17,3.859 c 59.33,48.614 110.81,31.473 138.26,-2.027 v 0 c 22.77,-27.789 30.3,-69.68 6.04,-89.562 v 0 c -0.84,-0.688 -1.72,-1.348 -2.64,-1.977 v 0 0 c -25.45,-17.434 -60.44,1.02 -79.68,29.117 v 0 c -23.95,34.961 -27.49,88.891 30.78,128.801 v 0 c 3.99,2.73 8.26,5.391 12.82,7.969 v 0 0 c 66.76,37.773 114.56,12.09 135.88,-25.598 v 0 c 17.69,-31.281 17.95,-73.84 -9.34,-89.281 v 0 c -0.95,-0.539 -1.93,-1.039 -2.94,-1.5 l -2.08,4.539 2.08,-4.539 c -28.05,-12.828 -59.38,11.332 -73.54,42.289 v 0 c -17.63,38.543 -11.9,92.281 52.33,121.66 v 0 c 4.39,2.012 9.05,3.902 13.98,5.672 v 0 0 c 72.23,25.809 114.94,-7.66 129.51,-48.441 v 0 c 12.09,-33.84 5.09,-75.821 -24.44,-86.368 v 0 c -1.03,-0.371 -2.08,-0.703 -3.16,-0.98 v 0 0 c -29.83,-7.852 -56.57,21.297 -65.24,54.226 v 0 c -10.79,40.993 4.04,92.961 72.34,110.942 v 0 c 4.67,1.23 9.58,2.301 14.75,3.191 l 0.85,-4.922 -0.85,4.922 c 75.57,13.098 111.94,-27.172 119.33,-69.832 v 0 c 6.14,-35.41 -7.93,-75.578 -38.83,-80.937 v 0 c -1.08,-0.18 -2.17,-0.321 -3.27,-0.422 v 0 0 c -30.74,-2.641 -52.11,30.652 -55.03,64.582 v 0 c -3.63,42.219 19.85,90.898 90.22,96.949 v 0 c 4.81,0.418 9.84,0.629 15.08,0.629 v -5 5 c 76.7,0 105.66,-45.891 105.66,-89.191 v 0 c 0,-35.938 -20.73,-73.11 -52.09,-73.11 v 0 c -1.09,0 -2.19,0.051 -3.3,0.141 v 0 0 c -30.73,2.652 -46.1,39.101 -43.18,73.019 v 0 c 3.63,42.231 35.07,86.18 105.44,80.133 v 0 c 4.82,-0.41 9.8,-1.062 14.97,-1.961 l -0.85,-4.922 0.85,4.922 c 75.57,-13.09 96.27,-63.25 88.88,-105.922 v 0 c -6.14,-35.41 -32.91,-68.5 -63.81,-63.14 v 0 c -1.07,0.191 -2.15,0.422 -3.22,0.703 v 0 0 c -29.83,7.848 -38.75,46.398 -30.09,79.328 v 0 c 10.79,40.98 49.28,78.922 117.58,60.941 v 0 c 4.68,-1.23 9.48,-2.722 14.42,-4.48 v 0 0 c 72.22,-25.809 84.05,-78.77 69.48,-119.539 v 0 c -12.09,-33.852 -44.12,-61.883 -73.65,-51.332 v 0 c -1.03,0.371 -2.05,0.789 -3.06,1.25 l 2.08,4.539 -2.08,-4.539 c -28.05,12.832 -30.26,52.332 -16.09,83.289 v 0 c 17.63,38.551 62.03,69.351 126.26,39.973 v 0 c 4.39,-2.012 8.87,-4.293 13.43,-6.883 l -2.46,-4.348 2.46,4.348 c 66.76,-37.758 69.37,-91.949 48.05,-129.637 v 0 c -17.69,-31.281 -54.04,-53.441 -81.33,-38 v 0 c -0.95,0.539 -1.89,1.117 -2.8,1.75 l 2.82,4.129 -2.82,-4.129 c -25.45,17.43 -20.88,56.727 -1.64,84.816 v 0 c 23.95,34.973 72.96,57.743 131.23,17.832 v 0 c 3.99,-2.73 8.01,-5.75 12.07,-9.082 l -3.17,-3.859 3.17,3.859 c 59.32,-48.597 52.64,-102.449 25.2,-135.949 v 0 c -22.77,-27.797 -62.37,-43.418 -86.62,-23.539 v 0 c -0.85,0.692 -1.67,1.422 -2.46,2.199 v 0 0 c -22.1,21.52 -10.89,59.461 12.87,83.852 v 0 c 29.57,30.359 81.75,44.43 132.34,-4.852 v 0 c 3.46,-3.367 6.91,-7.027 10.34,-10.988 l -3.78,-3.269 3.78,3.269 c 50.16,-58.031 34.38,-109.941 1.62,-138.262 v 0 c -27.19,-23.5 -68.86,-32.129 -89.37,-8.41 v 0 c -0.72,0.832 -1.4,1.692 -2.05,2.59 l 4.05,2.93 -4.05,-2.93 c -18.1,24.981 -0.57,60.441 27,80.422 v 0 c 34.32,24.871 88.14,29.82 129.58,-27.371 v 0 c 2.83,-3.91 5.6,-8.11 8.3,-12.598 v 0 0 c 39.52,-65.742 15.11,-114.2029 -22.01,-136.5115 v 0 c -30.8,-18.5117 -73.34,-19.8985 -89.49,6.9804 v 0 c -0.57,0.9297 -1.09,1.8985 -1.58,2.8985 v 0 0 c -14.39,29.3706 11.82,63.1206 44.04,78.9026 v 0 c 36.69,17.968 86.69,16.07 112.96,-37.571 v 0 c 0.93,-1.902 1.83,-3.871 2.7,-5.902 l -4.6,-1.969 4.6,1.969 c 24,-56.1367 -8.72,-94.3398 -44.43,-111.30853 l -4.52,-2.14063 -4.29,9.03126 4.51,2.1484 c 32.86,15.6094 60.65,48.9414 39.54,98.3395 v 0 0 c -0.81,1.883 -1.63,3.692 -2.49,5.43 v 0 c -23.12,47.223 -66.25,49.313 -99.58,32.992 v 0 c -31.43,-15.39 -49.78,-44.441 -39.46,-65.5193 l -4.49,-2.2031 4.49,2.2031 c 0.36,-0.7422 0.75,-1.4609 1.17,-2.1523 v 0 c 11.58,-19.2774 46.21,-21.3281 75.77,-3.5586 v 0 c 32.41,19.4805 55.24,61.8082 18.59,122.7812 l 4.29,2.578 -4.29,-2.578 c -2.56,4.27 -5.17,8.219 -7.83,11.887 v 0 c -37.81,52.183 -85.2,47.183 -115.61,25.152 v 0 c -26.52,-19.219 -37.62,-48.742 -24.77,-66.461 v 0 0 c 0.48,-0.668 0.99,-1.308 1.51,-1.918 v 0 c 14.71,-17.023 49.18,-13.121 75.27,9.43 v 0 c 28.61,24.73 43.88,70.328 -2.64,124.16 v 0 0 c -3.26,3.758 -6.51,7.207 -9.75,10.367 v 0 c -46.16,44.961 -92.01,31.942 -118.21,5.031 v 0 c -22.85,-23.449 -28.74,-54.441 -13.06,-69.71 l -3.49,-3.579 3.49,3.579 c 0.59,-0.579 1.2,-1.118 1.82,-1.629 v 0 c 17.4,-14.25 50.7,-4.532 72.56,22.148 v 0 c 23.96,29.25 31.22,76.793 -23.81,121.883 v 0 0 c -3.85,3.148 -7.64,6 -11.38,8.558 v 0 c -53.16,36.411 -96.11,15.75 -117.33,-15.23 v 0 c -18.5,-27.008 -19.02,-58.551 -0.96,-70.918 v 0 0 c 0.68,-0.473 1.37,-0.902 2.07,-1.293 v 0 c 19.58,-11.078 50.72,4.191 67.71,34.211 v 0 c 18.61,32.91 17.65,80.992 -44.27,116.02 v 0 c -4.33,2.449 -8.55,4.609 -12.67,6.492 v 0 c -58.6,26.797 -97.39,-0.891 -113.01,-35.043 v 0 c -13.62,-29.778 -8.75,-60.93 11.16,-70.039 v 0 c 0.75,-0.34 1.51,-0.649 2.26,-0.918 v 0 c 21.19,-7.571 49.26,12.789 60.87,45.269 v 0 c 12.73,35.61 3.57,82.821 -63.43,106.758 l 1.68,4.711 -1.68,-4.711 c -4.68,1.672 -9.21,3.082 -13.59,4.231 v 0 c -62.32,16.402 -95.81,-17.5 -105.37,-53.821 v 0 c -8.33,-31.668 1.79,-61.527 22.96,-67.109 l -1.27,-4.828 1.27,4.828 c 0.8,-0.211 1.6,-0.379 2.39,-0.52 v 0 c 22.16,-3.84 46.35,21.012 52.24,55 v 0 c 6.46,37.262 -10.63,82.211 -80.73,94.36 v 0 0 c -4.9,0.851 -9.6,1.461 -14.11,1.851 v 0 c -64.2,5.52 -91.41,-33.609 -94.63,-71.019 v 0 c -2.8,-32.633 12.27,-60.332 34.08,-62.203 l -0.43,-4.989 0.43,4.989 c 0.82,-0.079 1.64,-0.11 2.44,-0.11 v 0 c 22.5,0 42.09,28.621 42.09,63.11 v 0 c 0,37.812 -24.52,79.191 -95.66,79.191 v 0 c -4.97,0 -9.71,-0.199 -14.22,-0.59 v 0 c -64.2,-5.519 -84.33,-48.719 -81.11,-86.14 v 0 c 2.8,-32.618 22.39,-57.34 44.2,-55.461 l 0.43,-4.989 -0.43,4.989 c 0.82,0.07 1.63,0.171 2.42,0.312 v 0 c 22.17,3.84 36.58,35.379 30.69,69.371 v 0 c -6.46,37.258 -37.67,73.84 -107.77,61.688 v 0 c -4.9,-0.848 -9.53,-1.86 -13.92,-3.008 v 0 c -62.31,-16.402 -74.77,-62.402 -65.21,-98.723 v 0 c 8.34,-31.668 31.86,-52.679 53.03,-47.109 l 1.27,-4.828 -1.27,4.828 c 0.8,0.211 1.57,0.449 2.33,0.719 v 0 c 21.18,7.57 30,41.121 18.39,73.601 v 0 c -12.72,35.602 -49.72,66.32 -116.72,42.379 l -1.68,4.711 1.68,-4.711 c -4.68,-1.668 -9.08,-3.457 -13.2,-5.34 v 0 c -58.59,-26.808 -63.01,-74.258 -47.39,-108.41 v 0 c 13.62,-29.777 40.38,-46.457 60.29,-37.359 v 0 c 0.75,0.34 1.48,0.722 2.18,1.109 v 0 c 19.57,11.082 22.53,45.633 5.55,75.652 v 0 c -18.62,32.911 -60.32,56.86 -122.25,21.829 l -2.46,4.351 2.46,-4.351 c -4.32,-2.45 -8.35,-4.961 -12.08,-7.52 v 0 c -53.17,-36.41 -49.42,-83.918 -28.19,-114.898 v 0 c 18.5,-27.02 47.72,-38.891 65.78,-26.52 l 2.83,-4.121 -2.83,4.121 c 0.68,0.469 1.33,0.957 1.96,1.469 v 0 c 17.4,14.25 14.41,48.808 -7.45,75.488 v 0 c -23.96,29.25 -69.15,45.723 -124.18,0.633 v 0 0 c -3.84,-3.152 -7.38,-6.313 -10.63,-9.473 v 0 c -46.16,-44.957 -34.35,-91.129 -8.15,-118.027 v 0 c 22.85,-23.461 53.67,-30.172 69.35,-14.902 v 0 0 c 0.59,0.582 1.15,1.171 1.67,1.781 v 0 c 14.71,17.019 5.87,50.551 -20.22,73.109 v 0 c -28.61,24.731 -75.94,33.242 -122.47,-20.578 v 0 0 c -3.25,-3.762 -6.19,-7.48 -8.85,-11.152 v 0 c -37.81,-52.18 -18.29,-95.66 12.12,-117.688 v 0 c 26.52,-19.211 58.03,-20.562 70.87,-2.832 v 0 0 c 0.49,0.66 0.94,1.34 1.35,2.031 v 0 c 11.59,19.278 -2.85,50.821 -32.41,68.59 v 0 c -32.41,19.481 -80.5,19.782 -117.15,-41.199 l -4.29,2.578 4.29,-2.578 c -2.56,-4.262 -4.83,-8.422 -6.82,-12.492 v 0 c -28.34,-57.871 -1.69,-97.3791 32.04,-113.8908 v 0 c 29.41,-14.3984 60.68,-10.3476 70.31,9.3125 l 4.49,-2.2031 -4.49,2.2031 c 0.23,0.4571 0.44,0.918 0.64,1.3789 v 0 c 9.38,21.9684 -11.45,52.0314 -44.62,66.2114 v 0 c -33.78,14.437 -76.01,9.89 -97.55,-40.493 v 0 0 c -21.11,-49.3981 6.68,-82.7301 39.54,-98.3395 l 4.51,-2.1484 -4.29,-9.03126 z" />
    </clipPath>
  </defs>
  <sodipodi:namedview
     id="base"
     pagecolor="#ffffff"
     bordercolor="#666666"
     borderopacity="1.0"
     inkscape:pageopacity="0.0"
     inkscape:pageshadow="2"
     inkscape:zoom="0.7"
     inkscape:cx="-341.42857"
     inkscape:cy="548.57143"
     inkscape:document-units="mm"
     inkscape:current-layer="layer1"
     showgrid="false"
     inkscape:snap-bbox="true"
     inkscape:object-paths="true"
     inkscape:snap-intersection-paths="true"
     inkscape:window-width="1848"
     inkscape:window-height="1016"
     inkscape:window-x="72"
     inkscape:window-y="27"
     inkscape:window-maximized="1"
     inkscape:snap-global="false" />
  <metadata
     id="metadata5">
    <rdf:RDF>
      <cc:Work
         rdf:about="">
        <dc:format>image/svg+xml</dc:format>
        <dc:type
           rdf:resource="http://purl.org/dc/dcmitype/StillImage" />
        <dc:title></dc:title>
      </cc:Work>
    </rdf:RDF>
  </metadata>
  <g
     inkscape:label="Layer 1"
     inkscape:groupmode="layer"
     id="layer1"
     transform="translate(0,-210)">
    <g
       id="g2728"
       transform="translate(304.88918,102.37774)">
      <text
         id="text829"
         y="179.91414"
         x="-289.63876"
         style="font-style:italic;font-variant:normal;font-weight:normal;font-stretch:normal;font-size:10.58333302px;line-height:1.25;font-family:'Times New Roman';-inkscape-font-specification:'Times New Roman,  Italic';letter-spacing:0px;word-spacing:0px;fill:#000000;fill-opacity:1;stroke:none;stroke-width:0.26458332"
         xml:space="preserve"><tspan
           style="font-style:italic;font-variant:normal;font-weight:normal;font-stretch:normal;font-family:'Times New Roman';-inkscape-font-specification:'Times New Roman,  Italic';stroke-width:0.26458332"
           y="179.91414"
           x="-289.63876"
           id="tspan827"
           sodipodi:role="line">p<tspan
   id="tspan831"
   style="font-style:italic;font-variant:normal;font-weight:normal;font-stretch:normal;font-size:64.99999762%;font-family:'Times New Roman';-inkscape-font-specification:'Times New Roman,  Italic';baseline-shift:sub">1</tspan></tspan></text>
      <text
         xml:space="preserve"
         style="font-style:italic;font-variant:normal;font-weight:normal;font-stretch:normal;font-size:10.58333302px;line-height:1.25;font-family:'Times New Roman';-inkscape-font-specification:'Times New Roman,  Italic';letter-spacing:0px;word-spacing:0px;fill:#000000;fill-opacity:1;stroke:none;stroke-width:0.26458332"
         x="-294.53101"
         y="126.48203"
         id="text837"><tspan
           sodipodi:role="line"
           id="tspan835"
           x="-294.53101"
           y="126.48203"
           style="font-style:italic;font-variant:normal;font-weight:normal;font-stretch:normal;font-family:'Times New Roman';-inkscape-font-specification:'Times New Roman,  Italic';stroke-width:0.26458332">p<tspan
   style="font-style:italic;font-variant:normal;font-weight:normal;font-stretch:normal;font-size:64.99999762%;font-family:'Times New Roman';-inkscape-font-specification:'Times New Roman,  Italic';baseline-shift:sub"
   id="tspan833">2</tspan></tspan></text>
      <path
         sodipodi:nodetypes="cc"
         inkscape:connector-curvature="0"
         id="path843"
         d="M -212.38918,107.83342 V 194.4111"
         style="fill:none;stroke:#000000;stroke-width:0.5291667;stroke-linecap:butt;stroke-linejoin:miter;stroke-miterlimit:4;stroke-dasharray:4.23333333, 4.23333333;stroke-dashoffset:0;stroke-opacity:1" />
      <circle
         r="20.045216"
         cy="152.94173"
         cx="-259.77679"
         id="path821"
         style="opacity:1;fill:#cccccc;fill-opacity:1;stroke:none;stroke-width:0.52916664;stroke-miterlimit:4;stroke-dasharray:none;stroke-dashoffset:0;stroke-opacity:1" />
      <path
         sodipodi:nodetypes="ccc"
         inkscape:connector-curvature="0"
         id="path823"
         d="m -304.41081,182.60864 13.71639,-10.75794 13.54511,-10.62362"
         style="fill:none;stroke:#000000;stroke-width:0.79374999;stroke-linecap:butt;stroke-linejoin:miter;stroke-miterlimit:4;stroke-dasharray:none;stroke-opacity:1;marker-mid:url(#marker1430)" />
      <path
         sodipodi:nodetypes="ccc"
         style="fill:none;stroke:#000000;stroke-width:0.79374999;stroke-linecap:butt;stroke-linejoin:miter;stroke-miterlimit:4;stroke-dasharray:none;stroke-opacity:1;marker-mid:url(#Arrow1Mend)"
         d="m -304.41081,124.87842 13.9538,10.94415 13.3077,10.43741"
         id="path825"
         inkscape:connector-curvature="0" />
      <path
         sodipodi:nodetypes="ccc"
         inkscape:connector-curvature="0"
         id="path845"
         d="m -245.61151,166.57247 21.6705,10.59736 11.55183,5.6491"
         style="fill:none;stroke:#000000;stroke-width:0.79374999;stroke-linecap:butt;stroke-linejoin:miter;stroke-miterlimit:4;stroke-dasharray:none;stroke-opacity:1;marker-mid:url(#marker1604)" />
      <g
         transform="translate(-4.2333335,-1.0583333)"
         id="g2137">
        <circle
           r="1.5"
           cy="169.28696"
           cx="-231.13791"
           id="circle861"
           style="opacity:1;fill:#000000;fill-opacity:1;stroke:none;stroke-width:0.26998621;stroke-miterlimit:4;stroke-dasharray:none;stroke-dashoffset:0;stroke-opacity:1" />
        <circle
           r="1.5"
           cy="163.61732"
           cx="-228.87006"
           id="circle863"
           style="opacity:1;fill:#000000;fill-opacity:1;stroke:none;stroke-width:0.26998621;stroke-miterlimit:4;stroke-dasharray:none;stroke-dashoffset:0;stroke-opacity:1" />
        <circle
           r="1.5"
           cy="157.5697"
           cx="-228.87006"
           id="circle865"
           style="opacity:1;fill:#000000;fill-opacity:1;stroke:none;stroke-width:0.26998621;stroke-miterlimit:4;stroke-dasharray:none;stroke-dashoffset:0;stroke-opacity:1" />
      </g>
      <g
         transform="translate(-2.7214286,1.0583333)"
         id="g986">
        <circle
           r="1.5"
           cy="135.2691"
           cx="-234.16173"
           id="circle867"
           style="opacity:1;fill:#000000;fill-opacity:1;stroke:none;stroke-width:0.26998621;stroke-miterlimit:4;stroke-dasharray:none;stroke-dashoffset:0;stroke-opacity:1" />
        <circle
           r="1.5"
           cy="145.85243"
           cx="-230.38196"
           id="circle871"
           style="opacity:1;fill:#000000;fill-opacity:1;stroke:none;stroke-width:0.26998621;stroke-miterlimit:4;stroke-dasharray:none;stroke-dashoffset:0;stroke-opacity:1" />
        <circle
           style="opacity:1;fill:#000000;fill-opacity:1;stroke:none;stroke-width:0.26998621;stroke-miterlimit:4;stroke-dasharray:none;stroke-dashoffset:0;stroke-opacity:1"
           id="path857"
           cx="-231.89388"
           cy="140.18279"
           r="1.5" />
      </g>
      <path
         sodipodi:nodetypes="ccc"
         inkscape:connector-curvature="0"
         id="path873"
         d="m -239.86813,152.99107 h 21.39789 6.08106"
         style="fill:none;stroke:#000000;stroke-width:0.79374999;stroke-linecap:butt;stroke-linejoin:miter;stroke-miterlimit:4;stroke-dasharray:none;stroke-opacity:1;marker-mid:url(#marker1540)" />
      <path
         sodipodi:nodetypes="ccc"
         inkscape:connector-curvature="0"
         id="path875"
         d="m -248.1836,136.73809 21.60112,-9.75534 13.55066,-6.11965"
         style="fill:none;stroke:#000000;stroke-width:0.79374999;stroke-linecap:butt;stroke-linejoin:miter;stroke-miterlimit:4;stroke-dasharray:none;stroke-opacity:1;marker-mid:url(#marker1482)" />
      <circle
         transform="scale(-1,1)"
         style="opacity:1;fill:#cccccc;fill-opacity:1;stroke:none;stroke-width:0.52916664;stroke-miterlimit:4;stroke-dasharray:none;stroke-dashoffset:0;stroke-opacity:1"
         id="circle891"
         cx="165.00156"
         cy="152.94173"
         r="20.045216" />
      <path
         sodipodi:nodetypes="ccc"
         style="fill:none;stroke:#000000;stroke-width:0.79374999;stroke-linecap:butt;stroke-linejoin:miter;stroke-miterlimit:4;stroke-dasharray:none;stroke-opacity:1;marker-mid:url(#marker2569)"
         d="m -120.36755,182.60864 -12.32155,-9.66396 -14.93995,-11.7176"
         id="path893"
         inkscape:connector-curvature="0" />
      <path
         sodipodi:nodetypes="ccc"
         inkscape:connector-curvature="0"
         id="path895"
         d="m -120.36755,124.87842 -10.23713,8.02912 -17.02437,13.35244"
         style="fill:none;stroke:#000000;stroke-width:0.79374999;stroke-linecap:butt;stroke-linejoin:miter;stroke-miterlimit:4;stroke-dasharray:none;stroke-opacity:1;marker-mid:url(#marker2469)" />
      <path
         sodipodi:nodetypes="ccc"
         style="fill:none;stroke:#000000;stroke-width:0.79374999;stroke-linecap:butt;stroke-linejoin:miter;stroke-miterlimit:4;stroke-dasharray:none;stroke-opacity:1;marker-mid:url(#marker2287)"
         d="m -179.16685,166.57247 -18.0775,8.8403 -15.14483,7.40616"
         id="path897"
         inkscape:connector-curvature="0" />
      <g
         transform="translate(2.6458333,-3.2505953)"
         id="g1003">
        <circle
           style="opacity:1;fill:#000000;fill-opacity:1;stroke:none;stroke-width:0.26998621;stroke-miterlimit:4;stroke-dasharray:none;stroke-dashoffset:0;stroke-opacity:1"
           id="circle899"
           cx="190.23865"
           cy="170.79886"
           r="1.5"
           transform="scale(-1,1)" />
        <circle
           style="opacity:1;fill:#000000;fill-opacity:1;stroke:none;stroke-width:0.26998621;stroke-miterlimit:4;stroke-dasharray:none;stroke-dashoffset:0;stroke-opacity:1"
           id="circle901"
           cx="192.5065"
           cy="165.12923"
           r="1.5"
           transform="scale(-1,1)" />
        <circle
           style="opacity:1;fill:#000000;fill-opacity:1;stroke:none;stroke-width:0.26998621;stroke-miterlimit:4;stroke-dasharray:none;stroke-dashoffset:0;stroke-opacity:1"
           id="circle903"
           cx="192.5065"
           cy="159.0816"
           r="1.5"
           transform="scale(-1,1)" />
      </g>
      <circle
         transform="scale(-1,1)"
         r="1.5"
         cy="136.78101"
         cx="185.32497"
         id="circle905"
         style="opacity:1;fill:#000000;fill-opacity:1;stroke:none;stroke-width:0.26998621;stroke-miterlimit:4;stroke-dasharray:none;stroke-dashoffset:0;stroke-opacity:1" />
      <circle
         transform="scale(-1,1)"
         r="1.5"
         cy="147.36433"
         cx="189.10474"
         id="circle907"
         style="opacity:1;fill:#000000;fill-opacity:1;stroke:none;stroke-width:0.26998621;stroke-miterlimit:4;stroke-dasharray:none;stroke-dashoffset:0;stroke-opacity:1" />
      <circle
         transform="scale(-1,1)"
         style="opacity:1;fill:#000000;fill-opacity:1;stroke:none;stroke-width:0.26998621;stroke-miterlimit:4;stroke-dasharray:none;stroke-dashoffset:0;stroke-opacity:1"
         id="circle909"
         cx="187.97079"
         cy="142.07266"
         r="1.5" />
      <path
         sodipodi:nodetypes="ccc"
         style="fill:none;stroke:#000000;stroke-width:0.79374999;stroke-linecap:butt;stroke-linejoin:miter;stroke-miterlimit:4;stroke-dasharray:none;stroke-opacity:1;marker-mid:url(#Arrow1Mstart)"
         d="m -184.91023,152.99107 h -17.30703 -10.17192"
         id="path911"
         inkscape:connector-curvature="0" />
      <path
         style="fill:none;stroke:#000000;stroke-width:0.79374999;stroke-linecap:butt;stroke-linejoin:miter;stroke-miterlimit:4;stroke-dasharray:none;stroke-opacity:1;marker-mid:url(#marker2375)"
         d="m -176.59476,136.73809 -19.81458,-8.63286 -16.62248,-7.24213"
         id="path913"
         inkscape:connector-curvature="0"
         sodipodi:nodetypes="ccc" />
      <text
         id="text1670"
         y="122.3243"
         x="-235.18875"
         style="font-style:italic;font-variant:normal;font-weight:normal;font-stretch:normal;font-size:10.58333302px;line-height:1.25;font-family:'Times New Roman';-inkscape-font-specification:'Times New Roman,  Italic';letter-spacing:0px;word-spacing:0px;fill:#000000;fill-opacity:1;stroke:none;stroke-width:0.26458332"
         xml:space="preserve"><tspan
           style="font-style:italic;font-variant:normal;font-weight:normal;font-stretch:normal;font-family:'Times New Roman';-inkscape-font-specification:'Times New Roman,  Italic';stroke-width:0.26458332"
           y="122.3243"
           x="-235.18875"
           id="tspan1668"
           sodipodi:role="line">p<tspan
   id="tspan1666"
   style="font-style:italic;font-variant:normal;font-weight:normal;font-stretch:normal;font-size:64.99999762%;font-family:'Times New Roman';-inkscape-font-specification:'Times New Roman,  Italic';baseline-shift:sub">3</tspan></tspan></text>
      <text
         xml:space="preserve"
         style="font-style:italic;font-variant:normal;font-weight:normal;font-stretch:normal;font-size:10.58333302px;line-height:1.25;font-family:'Times New Roman';-inkscape-font-specification:'Times New Roman,  Italic';letter-spacing:0px;word-spacing:0px;fill:#000000;fill-opacity:1;stroke:none;stroke-width:0.26458332"
         x="-223.84947"
         y="146.81714"
         id="text1676"><tspan
           sodipodi:role="line"
           id="tspan1674"
           x="-223.84947"
           y="146.81714"
           style="font-style:italic;font-variant:normal;font-weight:normal;font-stretch:normal;font-family:'Times New Roman';-inkscape-font-specification:'Times New Roman,  Italic';stroke-width:0.26458332">p<tspan
   id="tspan1678"
   style="font-style:italic;font-variant:normal;font-weight:normal;font-stretch:normal;font-size:64.99999762%;font-family:'Times New Roman';-inkscape-font-specification:'Times New Roman,  Italic';baseline-shift:sub">l</tspan></tspan></text>
      <text
         xml:space="preserve"
         style="font-style:italic;font-variant:normal;font-weight:normal;font-stretch:normal;font-size:10.58333302px;line-height:1.25;font-family:'Times New Roman';-inkscape-font-specification:'Times New Roman,  Italic';letter-spacing:0px;word-spacing:0px;fill:#000000;fill-opacity:1;stroke:none;stroke-width:0.26458332"
         x="-232.16495"
         y="184.69037"
         id="text1684"><tspan
           sodipodi:role="line"
           id="tspan1682"
           x="-232.16495"
           y="184.69037"
           style="font-style:italic;font-variant:normal;font-weight:normal;font-stretch:normal;font-family:'Times New Roman';-inkscape-font-specification:'Times New Roman,  Italic';stroke-width:0.26458332">p<tspan
   style="font-style:italic;font-variant:normal;font-weight:normal;font-stretch:normal;font-size:64.99999762%;font-family:'Times New Roman';-inkscape-font-specification:'Times New Roman,  Italic';baseline-shift:sub"
   id="tspan1680">m</tspan></tspan></text>
      <path
         d="m -195.08921,153.22124 v 0 c 1.13312,0.59726 2.07575,1.84814 1.16487,3.59545 l 0.15628,0.0815 -0.15628,-0.0815 c -0.90875,1.74237 -2.34632,1.79317 -3.46498,1.20967 v 0 c -1.16029,-0.60501 -1.84291,-1.79493 -1.46156,-2.52589 v 0 c 0.01,-0.0187 0.0201,-0.0374 0.0314,-0.0557 v 0 0 c 0.38841,-0.63535 1.55328,-0.6738 2.56857,-0.0529 v 0 c 1.10561,0.67627 1.87855,2.07504 0.72461,3.96169 v 0 c -0.11183,0.18274 -0.24201,0.37077 -0.39229,0.56339 v 0 0 c -1.56633,2.00836 -3.17923,1.81186 -4.20511,1.01176 v 0 c -0.9973,-0.77787 -1.38677,-2.04293 -0.90629,-2.65924 v 0 c 0.0205,-0.0264 0.043,-0.0522 0.067,-0.0765 l -0.12594,-0.12382 0.12594,0.12382 c 0.52141,-0.53163 1.66511,-0.30656 2.5146,0.5267 v 0 c 0.92498,0.90805 1.36278,2.44475 -0.18591,4.02308 v 0 c -0.15029,0.1531 -0.31962,0.30691 -0.50941,0.46073 l 0.11112,0.13723 -0.11112,-0.13723 c -1.97838,1.60408 -3.50556,1.04951 -4.32471,0.0391 v 0 c -0.79657,-0.98248 -0.89147,-2.30293 -0.28434,-2.79506 v 0 c 0.0261,-0.0212 0.0536,-0.0413 0.0826,-0.0596 v 0 0 c 0.62795,-0.40041 1.69157,0.0762 2.33116,1.0795 v 0 c 0.69709,1.09255 0.77788,2.68852 -1.08656,3.87773 v 0 c -0.18097,0.11536 -0.38064,0.22719 -0.60007,0.33443 v 0 0 c -2.28882,1.1176 -3.65196,0.23319 -4.22275,-0.93592 v 0 c -0.55492,-1.13665 -0.3496,-2.44439 0.35242,-2.78729 v 0 c 0.0303,-0.0148 0.0617,-0.0279 0.0942,-0.0395 l -0.0593,-0.16615 0.0593,0.16615 c 0.70167,-0.2487 1.63054,0.45509 2.02812,1.57657 v 0 c 0.43285,1.22167 0.1524,2.79506 -1.93217,3.53377 v 0 c -0.20214,0.0716 -0.42157,0.13582 -0.65969,0.19086 l 0.0399,0.1718 -0.0399,-0.1718 c -2.48144,0.57326 -3.61068,-0.59514 -3.90349,-1.86267 v 0 c -0.28469,-1.23225 0.20955,-2.46063 0.97085,-2.63631 v 0 c 0.0328,-0.008 0.0663,-0.0134 0.10054,-0.0173 v 0 0 c 0.73977,-0.0843 1.48625,0.81034 1.62101,1.99249 v 0 c 0.14711,1.288 -0.48084,2.75767 -2.67794,3.00814 v 0 c -0.21307,0.0243 -0.44132,0.037 -0.6858,0.037 v 0.17639 -0.17639 c -2.54705,0 -3.38384,-1.39241 -3.38384,-2.69346 v 0 c 0,-1.2647 0.75812,-2.3502 1.53952,-2.3502 v 0 c 0.0335,0 0.0674,0.002 0.1016,0.006 v 0 0 c 0.73978,0.0843 1.26577,1.12431 1.13101,2.30647 v 0 c -0.14676,1.28799 -1.08938,2.57845 -3.28648,2.32798 v 0 c -0.21308,-0.0243 -0.4385,-0.0635 -0.67663,-0.11818 v 0 0 c -2.48144,-0.57362 -2.98344,-2.11879 -2.69063,-3.38632 v 0 c 0.28469,-1.2326 1.26788,-2.11913 2.02917,-1.94345 v 0 c 0.0328,0.008 0.0656,0.0173 0.0977,0.0286 l 0.0593,-0.16615 -0.0593,0.16615 c 0.70203,0.24871 0.98037,1.38042 0.58279,2.50226 v 0 c -0.43321,1.22167 -1.64183,2.26659 -3.72639,1.52788 v 0 c -0.20214,-0.0716 -0.4131,-0.16016 -0.63253,-0.26741 l -0.0773,0.1584 0.0773,-0.1584 c -2.28882,-1.1176 -2.42993,-2.73614 -1.85914,-3.90525 v 0 c 0.55492,-1.13665 1.71238,-1.77906 2.41476,-1.43651 v 0 c 0.03,0.0148 0.0596,0.0314 0.0889,0.0501 l 0.0949,-0.14888 -0.0949,0.14888 c 0.6276,0.4004 0.64418,1.56562 0.004,2.56892 v 0 c -0.69709,1.09291 -2.11032,1.83903 -3.97475,0.64982 v 0 c -0.18097,-0.11536 -0.36618,-0.24906 -0.55598,-0.40322 l -0.11112,0.13723 0.11112,-0.13723 c -1.97838,-1.60409 -1.75154,-3.21275 -0.93239,-4.22346 v 0 c 0.79693,-0.98249 2.06904,-1.34796 2.67617,-0.85584 v 0 c 0.0261,0.0212 0.0512,0.0441 0.0755,0.0688 l 0.12594,-0.12382 -0.12594,0.12382 c 0.5214,0.53129 0.27481,1.6704 -0.57432,2.50367 v 0 c -0.92534,0.90805 -2.47015,1.31692 -4.01885,-0.26177 v 0 c -0.15028,-0.1531 -0.30092,-0.32526 -0.4512,-0.51787 v 0 0 c -1.56634,-2.00801 -0.98319,-3.52461 0.0427,-4.32471 v 0 c 0.99766,-0.77787 2.31952,-0.84772 2.8,-0.23142 v 0 c 0.0208,0.0265 0.0402,0.0543 0.0582,0.084 v 0 0 c 0.41769,0.68298 -0.1524,1.8094 -1.22978,2.46839 v 0 c -1.09397,0.66887 -2.55658,0.73589 -3.52073,-0.84067 v 0 c -0.0494,-0.0808 -0.0977,-0.16616 -0.14463,-0.25576 l -0.15629,0.0815 0.15629,-0.0815 c -0.91088,-1.74731 0.0317,-2.99819 1.16487,-3.59545 l 0.15593,-0.0823 -0.1644,-0.31186 -0.15593,0.0823 c -1.23719,0.65154 -2.34597,2.09014 -1.31304,4.07028 v 0 0 c 0.0505,0.0967 0.10266,0.18909 0.15628,0.27693 v 0 c 1.09397,1.78858 2.79506,1.69757 4.0058,0.95744 v 0 c 1.09749,-0.67134 1.93639,-1.98861 1.34655,-2.95346 l -0.15064,0.0921 0.15064,-0.0921 c -0.025,-0.0409 -0.0519,-0.0797 -0.0808,-0.11677 v 0 c -0.6738,-0.8636 -2.25883,-0.63817 -3.29529,0.17004 v 0 c -1.18816,0.92675 -1.7833,2.667 -0.10372,4.82001 l 0.13899,-0.10831 -0.13899,0.10831 c 0.15769,0.20249 0.31715,0.38488 0.47731,0.54821 v 0 c 1.70215,1.73461 3.47133,1.29329 4.51767,0.26635 v 0 c 0.87524,-0.85866 1.32644,-2.2412 0.57926,-3.00285 v 0 c -0.0335,-0.0339 -0.0688,-0.066 -0.10513,-0.0956 v 0 c -0.8509,-0.68968 -2.34456,-0.11289 -3.17217,0.90805 v 0 c -0.94898,1.17017 -1.13736,2.99967 0.98389,4.71946 v 0 c 0.19932,0.16158 0.39547,0.30339 0.58844,0.42651 v 0 c 2.04893,1.30669 3.67347,0.47872 4.46193,-0.75741 v 0 c 0.65899,-1.03364 0.78775,-2.4825 -0.11218,-3.05612 v 0 0 c -0.0402,-0.0258 -0.0815,-0.049 -0.12383,-0.0695 v 0 c -0.98425,-0.48049 -2.30963,0.41769 -2.88607,1.59843 v 0 c -0.66111,1.35432 -0.43251,3.17888 2.02106,4.37727 v 0 c 0.23072,0.11254 0.45403,0.20637 0.66957,0.28293 v 0 c 2.29059,0.81174 3.68688,-0.36089 4.17654,-1.74272 v 0 c 0.40957,-1.15535 0.20849,-2.5961 -0.79693,-2.9524 v 0 c -0.0451,-0.0162 -0.0907,-0.0293 -0.13652,-0.0399 v 0 c -1.06715,-0.24659 -2.15653,0.9271 -2.45216,2.20769 v 0 c -0.33937,1.46791 0.29422,3.1944 2.95487,3.80929 l 0.0395,-0.1718 -0.0395,0.1718 c 0.25012,0.0579 0.48859,0.0991 0.71578,0.12489 v 0 c 2.41477,0.27551 3.5112,-1.18146 3.67736,-2.63843 v 0 c 0.13864,-1.21779 -0.38135,-2.57598 -1.44145,-2.69699 l -0.0201,0.17533 0.0201,-0.17533 c -0.0476,-0.005 -0.0949,-0.008 -0.14182,-0.008 v 0 c -1.09537,0 -1.8923,1.38889 -1.8923,2.70298 v 0 c 0,1.50672 1.00577,3.04624 3.73662,3.04624 v 0 0 c 0.25683,0 0.49848,-0.0134 0.72567,-0.0392 v 0 c 2.41441,-0.27552 3.15489,-1.94169 2.98873,-3.39866 v 0 c -0.13899,-1.21779 -0.95144,-2.42429 -2.01189,-2.30329 l 0.0201,0.17533 -0.0201,-0.17533 c -0.0473,0.005 -0.0938,0.0134 -0.1397,0.024 v 0 c -1.06715,0.24659 -1.53106,1.77941 -1.23507,3.05964 v 0 c 0.33901,1.46827 1.66581,2.74179 4.32646,2.1269 v 0 c 0.25012,-0.0579 0.4826,-0.12559 0.69815,-0.20179 v 0 c 2.29059,-0.81209 2.63666,-2.60209 2.14665,-3.98427 v 0 c -0.40922,-1.15535 -1.47285,-2.14771 -2.47861,-1.79105 v 0 c -0.0448,0.0159 -0.0885,0.0342 -0.13089,0.0547 v 0 c -0.98425,0.48083 -1.09114,2.07857 -0.51435,3.25931 v 0 c 0.66111,1.35396 2.2405,2.29623 4.69442,1.0982 l -0.0776,-0.15875 0.0776,0.15875 c 0.23072,-0.11289 0.44203,-0.23107 0.63465,-0.35419 v 0 c 2.04893,-1.30669 1.98296,-3.12879 1.1945,-4.36492 v 0 c -0.65899,-1.03364 -1.9184,-1.76107 -2.81799,-1.1871 l 0.0945,0.14852 -0.0945,-0.14852 c -0.0406,0.0258 -0.0787,0.0533 -0.11536,0.0829 v 0 c -0.8509,0.68968 -0.59513,2.27047 0.23249,3.29141 v 0 c 0.94897,1.17017 2.70016,1.7325 4.82106,0.0127 v 0 c 0.19932,-0.16157 0.37853,-0.3242 0.53904,-0.48754 v 0 c 1.7018,-1.7346 1.22767,-3.49532 0.18098,-4.52225 v 0 c -0.87489,-0.85831 -2.2659,-1.28376 -3.01308,-0.52212 v 0 c -0.0335,0.0342 -0.0649,0.0699 -0.0938,0.1069 v 0 c -0.67345,0.8636 -0.0684,2.34632 0.96767,3.15454 v 0 c 1.18816,0.92674 3.02084,1.0802 4.70006,-1.07315 l -0.13899,-0.10831 0.13899,0.10831 c 0.15804,-0.20215 0.29598,-0.40111 0.41522,-0.59655 v 0 c 1.26788,-2.07292 0.40922,-3.68159 -0.84173,-4.44641 v 0 c -1.04563,-0.63959 -2.49661,-0.74084 -3.05329,0.16968 l 0.15064,0.0921 -0.15064,-0.0921 c -0.0155,0.025 -0.03,0.0508 -0.0434,0.0769 v 0 c -0.53199,1.01953 0.42333,2.38195 1.61149,3.00178 v 0 c 1.25836,0.65617 2.92558,0.58667 3.94053,-1.3596 v 0 0 c 1.03293,-1.98014 -0.0759,-3.41874 -1.31304,-4.07028 l -0.15593,-0.0823 -0.1644,0.31186"
         style="fill:#000000;fill-opacity:1;fill-rule:nonzero;stroke:#000000;stroke-width:0.03527778;stroke-opacity:1"
         id="path1856"
         inkscape:connector-curvature="0" />
      <text
         id="text2141"
         y="174.53571"
         x="-223.7619"
         style="font-style:italic;font-variant:normal;font-weight:normal;font-stretch:normal;font-size:10.58333302px;line-height:1.25;font-family:'Times New Roman';-inkscape-font-specification:'Times New Roman,  Italic';letter-spacing:0px;word-spacing:0px;fill:#000000;fill-opacity:1;stroke:none;stroke-width:0.26458332"
         xml:space="preserve"><tspan
           style="font-style:italic;font-variant:normal;font-weight:normal;font-stretch:normal;font-family:'Times New Roman';-inkscape-font-specification:'Times New Roman,  Italic';stroke-width:0.26458332"
           y="174.53571"
           x="-223.7619"
           id="tspan2139"
           sodipodi:role="line">k</tspan></text>
      <text
         id="text2265"
         y="146.81714"
         x="-206.38721"
         style="font-style:italic;font-variant:normal;font-weight:normal;font-stretch:normal;font-size:10.58333302px;line-height:1.25;font-family:'Times New Roman';-inkscape-font-specification:'Times New Roman,  Italic';letter-spacing:0px;word-spacing:0px;fill:#000000;fill-opacity:1;stroke:none;stroke-width:0.26458332"
         xml:space="preserve"><tspan
           style="font-style:italic;font-variant:normal;font-weight:normal;font-stretch:normal;font-family:'Times New Roman';-inkscape-font-specification:'Times New Roman,  Italic';stroke-width:0.26458332"
           y="146.81714"
           x="-206.38721"
           id="tspan2263"
           sodipodi:role="line">p<tspan
   style="font-style:italic;font-variant:normal;font-weight:normal;font-stretch:normal;font-size:64.99999762%;font-family:'Times New Roman';-inkscape-font-specification:'Times New Roman,  Italic';baseline-shift:sub"
   id="tspan2261">l</tspan></tspan></text>
      <text
         id="text2365"
         y="185.8243"
         x="-201.92685"
         style="font-style:italic;font-variant:normal;font-weight:normal;font-stretch:normal;font-size:10.58333302px;line-height:1.25;font-family:'Times New Roman';-inkscape-font-specification:'Times New Roman,  Italic';letter-spacing:0px;word-spacing:0px;fill:#000000;fill-opacity:1;stroke:none;stroke-width:0.26458332"
         xml:space="preserve"><tspan
           style="font-style:italic;font-variant:normal;font-weight:normal;font-stretch:normal;font-family:'Times New Roman';-inkscape-font-specification:'Times New Roman,  Italic';stroke-width:0.26458332"
           y="185.8243"
           x="-201.92685"
           id="tspan2363"
           sodipodi:role="line">p<tspan
   id="tspan2361"
   style="font-style:italic;font-variant:normal;font-weight:normal;font-stretch:normal;font-size:64.99999762%;font-family:'Times New Roman';-inkscape-font-specification:'Times New Roman,  Italic';baseline-shift:sub">m</tspan></tspan></text>
      <text
         xml:space="preserve"
         style="font-style:italic;font-variant:normal;font-weight:normal;font-stretch:normal;font-size:10.58333302px;line-height:1.25;font-family:'Times New Roman';-inkscape-font-specification:'Times New Roman,  Italic';letter-spacing:0px;word-spacing:0px;fill:#000000;fill-opacity:1;stroke:none;stroke-width:0.26458332"
         x="-197.39113"
         y="123.08025"
         id="text2459"><tspan
           sodipodi:role="line"
           id="tspan2457"
           x="-197.39113"
           y="123.08025"
           style="font-style:italic;font-variant:normal;font-weight:normal;font-stretch:normal;font-family:'Times New Roman';-inkscape-font-specification:'Times New Roman,  Italic';stroke-width:0.26458332">p<tspan
   style="font-style:italic;font-variant:normal;font-weight:normal;font-stretch:normal;font-size:64.99999762%;font-family:'Times New Roman';-inkscape-font-specification:'Times New Roman,  Italic';baseline-shift:sub"
   id="tspan2455">3</tspan></tspan></text>
      <text
         id="text2559"
         y="128.74989"
         x="-139.93875"
         style="font-style:italic;font-variant:normal;font-weight:normal;font-stretch:normal;font-size:10.58333302px;line-height:1.25;font-family:'Times New Roman';-inkscape-font-specification:'Times New Roman,  Italic';letter-spacing:0px;word-spacing:0px;fill:#000000;fill-opacity:1;stroke:none;stroke-width:0.26458332"
         xml:space="preserve"><tspan
           style="font-style:italic;font-variant:normal;font-weight:normal;font-stretch:normal;font-family:'Times New Roman';-inkscape-font-specification:'Times New Roman,  Italic';stroke-width:0.26458332"
           y="128.74989"
           x="-139.93875"
           id="tspan2557"
           sodipodi:role="line">p<tspan
   id="tspan2555"
   style="font-style:italic;font-variant:normal;font-weight:normal;font-stretch:normal;font-size:64.99999762%;font-family:'Times New Roman';-inkscape-font-specification:'Times New Roman,  Italic';baseline-shift:sub">2</tspan></tspan></text>
      <text
         xml:space="preserve"
         style="font-style:italic;font-variant:normal;font-weight:normal;font-stretch:normal;font-size:10.58333302px;line-height:1.25;font-family:'Times New Roman';-inkscape-font-specification:'Times New Roman,  Italic';letter-spacing:0px;word-spacing:0px;fill:#000000;fill-opacity:1;stroke:none;stroke-width:0.26458332"
         x="-143.73996"
         y="179.91414"
         id="text2665"><tspan
           sodipodi:role="line"
           id="tspan2663"
           x="-143.73996"
           y="179.91414"
           style="font-style:italic;font-variant:normal;font-weight:normal;font-stretch:normal;font-family:'Times New Roman';-inkscape-font-specification:'Times New Roman,  Italic';stroke-width:0.26458332">p<tspan
   style="font-style:italic;font-variant:normal;font-weight:normal;font-stretch:normal;font-size:64.99999762%;font-family:'Times New Roman';-inkscape-font-specification:'Times New Roman,  Italic';baseline-shift:sub"
   id="tspan2661">1</tspan></tspan></text>
    </g>
  </g>
</svg>
