<?xml version="1.0" encoding="UTF-8" standalone="no"?>
<!-- Created with Inkscape (http://www.inkscape.org/) -->

<svg
   xmlns:dc="http://purl.org/dc/elements/1.1/"
   xmlns:cc="http://creativecommons.org/ns#"
   xmlns:rdf="http://www.w3.org/1999/02/22-rdf-syntax-ns#"
   xmlns:svg="http://www.w3.org/2000/svg"
   xmlns="http://www.w3.org/2000/svg"
   xmlns:sodipodi="http://sodipodi.sourceforge.net/DTD/sodipodi-0.dtd"
   xmlns:inkscape="http://www.inkscape.org/namespaces/inkscape"
   version="1.1"
   id="svg2"
   xml:space="preserve"
   width="273.33334"
   height="104"
   viewBox="0 0 273.33334 104"
   sodipodi:docname="branch.svg"
   inkscape:version="0.92.5 (2060ec1f9f, 2020-04-08)"><metadata
     id="metadata8"><rdf:RDF><cc:Work
         rdf:about=""><dc:format>image/svg+xml</dc:format><dc:type
           rdf:resource="http://purl.org/dc/dcmitype/StillImage" /><dc:title></dc:title></cc:Work></rdf:RDF></metadata><defs
     id="defs6"><clipPath
       clipPathUnits="userSpaceOnUse"
       id="clipPath20"><path
         d="m 480,345 v 0 h 795 v -10 h -5 -790 -5 v 10 z"
         id="path18"
         inkscape:connector-curvature="0" /></clipPath><clipPath
       clipPathUnits="userSpaceOnUse"
       id="clipPath30"><path
         d="m 900,340 -50,-20 10,20 -10,20 z"
         id="path28"
         inkscape:connector-curvature="0" /></clipPath><clipPath
       clipPathUnits="userSpaceOnUse"
       id="clipPath40"><path
         d="m 901.859,335.359 v 0 l -50,-20 -12.211,-4.89 5.883,11.769 10,20 L 860,340 l -4.469,-2.238 -10,20 -5.883,11.769 12.211,-4.89 50,-20 11.602,-4.641 -11.602,-4.641 m -3.718,9.282 L 900,340 l -1.859,-4.641 -50,20 1.859,4.641 4.469,2.238 10,-20 1.121,-2.238 -1.121,-2.238 -10,-20 L 850,320 l -1.859,4.641 z"
         id="path38"
         inkscape:connector-curvature="0" /></clipPath><clipPath
       clipPathUnits="userSpaceOnUse"
       id="clipPath50"><path
         d="M 650,340 C 650,163.27 506.73,20 330,20 153.27,20 10,163.27 10,340 10,516.73 153.27,660 330,660 506.73,660 650,516.73 650,340 Z"
         id="path48"
         inkscape:connector-curvature="0" /></clipPath><clipPath
       clipPathUnits="userSpaceOnUse"
       id="clipPath60"><path
         d="m 655,340 v 0 C 655,160.512 509.488,15 330,15 v 5 -5 C 150.512,15 5,160.512 5,340 h 5 -5 c 0,179.488 145.512,325 325,325 v -5 5 c 179.488,0 325,-145.512 325,-325 h -5 5 m -10,0 v 0 c 0,173.969 -141.031,315 -315,315 v 0 C 156.031,655 15,513.969 15,340 v 0 C 15,166.031 156.031,25 330,25 v 0 c 173.969,0 315,141.031 315,315 z"
         id="path58"
         inkscape:connector-curvature="0" /></clipPath><clipPath
       clipPathUnits="userSpaceOnUse"
       id="clipPath76"><path
         d="m 1271.16,344.859 v 0 l 710,-170 4.87,-1.16 -2.33,-9.73 -4.86,1.172 -710,170 -4.87,1.16 2.33,9.73 z"
         id="path74"
         inkscape:connector-curvature="0" /></clipPath><clipPath
       clipPathUnits="userSpaceOnUse"
       id="clipPath86"><path
         d="m 1649.31,249.18 -53.28,-7.809 14.38,17.117 -5.07,21.782 z"
         id="path84"
         inkscape:connector-curvature="0" /></clipPath><clipPath
       clipPathUnits="userSpaceOnUse"
       id="clipPath96"><path
         d="m 1650.04,244.23 v 0 l -53.28,-7.808 -13.02,-1.902 8.46,10.07 14.38,17.121 3.83,-3.223 -4.87,-1.129 -5.07,21.782 -2.98,12.808 10.74,-7.597 43.97,-31.09 10.21,-7.223 -12.37,-1.809 m -1.45,9.899 0.72,-4.949 -2.88,-4.078 -43.97,31.089 2.88,4.079 4.87,1.128 5.07,-21.769 0.57,-2.438 -1.61,-1.91 -14.38,-17.121 -3.83,3.211 -0.72,4.949 z"
         id="path94"
         inkscape:connector-curvature="0" /></clipPath><clipPath
       clipPathUnits="userSpaceOnUse"
       id="clipPath106"><path
         d="m 1265.05,339.309 v 0 c -5.42,38.921 6.26,84.57 59.05,100.339 l 1.43,-4.789 -1.43,4.789 c 57.41,17.153 96.8,-22.109 109,-62.949 v 0 c 9.77,-32.687 2.99,-70.578 -30.2,-80.5 l -1.43,4.789 1.43,-4.789 c -31.36,-9.359 -56.79,15.153 -66.01,46 v 0 c -12.78,42.801 3.31,102.262 75.21,123.742 l 1.43,-4.793 -1.43,4.793 c 71.91,21.481 117.98,-19.421 130.76,-62.222 v 0 c 9.22,-30.848 1.39,-65.289 -29.96,-74.66 v 0 0 c -31.36,-9.368 -56.79,15.14 -66.01,45.992 v 0 c -12.78,42.801 3.31,102.269 75.21,123.75 l 1.43,-4.789 -1.43,4.789 c 71.91,21.469 117.98,-19.422 130.76,-62.219 v 0 c 9.22,-30.852 1.39,-65.301 -29.96,-74.66 l -1.43,4.789 1.43,-4.789 c -31.36,-9.371 -56.79,15.137 -66.01,45.988 v 0 c -12.78,42.801 3.31,102.27 75.21,123.738 l 1.43,-4.789 -1.43,4.789 c 71.91,21.481 117.98,-19.41 130.76,-62.207 v 0 c 9.22,-30.851 1.39,-65.3 -29.96,-74.66 l -1.43,4.789 1.43,-4.789 c -31.36,-9.371 -56.79,15.141 -66.01,45.989 v 0 c -12.78,42.8 3.31,102.261 75.21,123.742 v 0 0 c 71.91,21.476 117.98,-19.422 130.76,-62.223 v 0 c 9.22,-30.848 1.39,-65.289 -29.96,-74.66 l -1.43,4.793 1.43,-4.793 c -31.36,-9.359 -56.79,15.152 -66.01,46 v 0 c -12.78,42.801 3.31,102.262 75.21,123.742 l 1.43,-4.789 -1.43,4.789 c 71.91,21.481 117.98,-19.422 130.76,-62.223 v 0 c 9.22,-30.847 1.39,-65.289 -29.96,-74.66 v 0 0 c -33.2,-9.918 -59.65,18.051 -69.41,50.742 v 0 c -12.2,40.84 -0.79,95.282 56.61,112.418 v 0 0 c 52.8,15.774 87.6,-15.988 104.42,-51.507 l 2.14,-4.52 -9.04,-4.281 -2.14,4.519 c -15.65,33.063 -46.31,60.012 -92.51,46.211 l -1.44,4.789 1.44,-4.789 c -50.3,-15.019 -61.12,-62.41 -49.9,-99.968 v 0 c 9.29,-31.114 32.13,-51.454 56.96,-44.032 l 1.44,-4.789 -1.44,4.789 c 23.45,7 31.8,33.59 23.25,62.219 v 0 c -11.38,38.102 -52.28,75.223 -118.31,55.5 v 0 c -66.04,-19.73 -79.88,-73.199 -68.5,-111.301 v 0 c 8.55,-28.629 30.12,-46.277 53.56,-39.277 v 0 c 23.45,7.008 31.8,33.598 23.25,62.219 v 0 c -11.38,38.101 -52.28,75.218 -118.31,55.5 l -1.44,4.789 1.44,-4.789 c -66.04,-19.731 -79.88,-73.2 -68.5,-111.301 v 0 c 8.55,-28.617 30.12,-46.277 53.56,-39.27 v 0 c 23.45,7 31.8,33.59 23.25,62.211 v 0 c -11.38,38.102 -52.28,75.231 -118.31,55.5 v 0 c -66.04,-19.718 -79.88,-73.191 -68.5,-111.3 v 0 c 8.55,-28.622 30.12,-46.27 53.56,-39.27 v 0 0 c 23.45,7 31.8,33.59 23.25,62.219 v 0 c -11.38,38.101 -52.28,75.222 -118.31,55.492 v 0 c -66.04,-19.723 -79.88,-73.191 -68.5,-111.289 v 0 c 8.55,-28.633 30.12,-46.281 53.56,-39.281 l 1.44,-4.789 -1.44,4.789 c 23.45,7.007 31.8,33.589 23.25,62.218 v 0 c -11.38,38.102 -52.28,75.223 -118.31,55.5 v 0 0 c -66.04,-19.73 -79.88,-73.199 -68.5,-111.3 v 0 c 8.55,-28.629 30.12,-46.278 53.56,-39.27 v 0 c 24.84,7.41 32.78,36.941 23.49,68.051 v 0 c -11.22,37.57 -46.25,71.262 -96.55,56.23 v 0 0 c -46.21,-13.8 -57.06,-53.148 -52.02,-89.379 l 0.69,-4.953 -9.9,-1.379 z"
         id="path104"
         inkscape:connector-curvature="0" /></clipPath><clipPath
       clipPathUnits="userSpaceOnUse"
       id="clipPath124"><path
         d="m 1548.53,544.781 v 0 l 260,80 4.78,1.469 2.94,-9.559 -4.78,-1.472 -260,-80 -4.78,-1.469 -2.94,9.559 z"
         id="path122"
         inkscape:connector-curvature="0" /></clipPath><clipPath
       clipPathUnits="userSpaceOnUse"
       id="clipPath134"><path
         d="m 1703.89,587.352 -41.9,-33.821 3.67,22.059 -15.44,16.172 z"
         id="path132"
         inkscape:connector-curvature="0" /></clipPath><clipPath
       clipPathUnits="userSpaceOnUse"
       id="clipPath144"><path
         d="m 1707.03,583.461 v 0 l -41.9,-33.82 -10.24,-8.262 2.17,12.973 3.67,22.058 4.93,-0.82 -3.61,-3.449 -15.44,16.168 -9.08,9.511 13.1,-1.07 53.67,-4.41 12.46,-1.031 -9.73,-7.848 m -6.28,7.777 3.14,-3.886 -0.4,-4.981 -53.68,4.41 0.41,4.981 3.62,3.457 15.44,-16.18 1.73,-1.809 -0.41,-2.46 -3.68,-22.059 -4.93,0.82 -3.14,3.891 z"
         id="path142"
         inkscape:connector-curvature="0" /></clipPath></defs><sodipodi:namedview
     pagecolor="#ffffff"
     bordercolor="#666666"
     borderopacity="1"
     objecttolerance="10"
     gridtolerance="10"
     guidetolerance="10"
     inkscape:pageopacity="0"
     inkscape:pageshadow="2"
     inkscape:window-width="1848"
     inkscape:window-height="1016"
     id="namedview4"
     showgrid="false"
     inkscape:zoom="1.3317073"
     inkscape:cx="136.66667"
     inkscape:cy="52"
     inkscape:window-x="72"
     inkscape:window-y="27"
     inkscape:window-maximized="1"
     inkscape:current-layer="g10" /><g
     id="g10"
     inkscape:groupmode="layer"
     inkscape:label="ink_ext_XXXXXX"
     transform="matrix(1.3333333,0,0,-1.3333333,0,104)"><g
       id="g12"
       transform="scale(0.1)"><g
         id="g14"><g
           id="g16"
           clip-path="url(#clipPath20)"><path
             d="m 480,345 v 0 h 795 v -10 h -5 -790 -5 v 10"
             style="fill:#000000;fill-opacity:1;fill-rule:nonzero;stroke:none"
             id="path22"
             inkscape:connector-curvature="0" /></g></g><g
         id="g24"><g
           id="g26"
           clip-path="url(#clipPath30)"><path
             d="m 900,340 -50,-20 10,20 -10,20 z"
             style="fill:#000000;fill-opacity:1;fill-rule:nonzero;stroke:none"
             id="path32"
             inkscape:connector-curvature="0" /></g></g><g
         id="g34"><g
           id="g36"
           clip-path="url(#clipPath40)"><path
             d="m 901.859,335.359 v 0 l -50,-20 -12.211,-4.89 5.883,11.769 10,20 L 860,340 l -4.469,-2.238 -10,20 -5.883,11.769 12.211,-4.89 50,-20 11.602,-4.641 -11.602,-4.641 m -3.718,9.282 L 900,340 l -1.859,-4.641 -50,20 1.859,4.641 4.469,2.238 10,-20 1.121,-2.238 -1.121,-2.238 -10,-20 L 850,320 l -1.859,4.641 50,20"
             style="fill:#000000;fill-opacity:1;fill-rule:nonzero;stroke:none"
             id="path42"
             inkscape:connector-curvature="0" /></g></g><g
         id="g44"><g
           id="g46"
           clip-path="url(#clipPath50)"><path
             d="M 650,340 C 650,163.27 506.73,20 330,20 153.27,20 10,163.27 10,340 10,516.73 153.27,660 330,660 506.73,660 650,516.73 650,340"
             style="fill:#e1e1e1;fill-opacity:1;fill-rule:nonzero;stroke:none"
             id="path52"
             inkscape:connector-curvature="0" /></g></g><g
         id="g54"><g
           id="g56"
           clip-path="url(#clipPath60)"><path
             d="m 655,340 v 0 C 655,160.512 509.488,15 330,15 v 5 -5 C 150.512,15 5,160.512 5,340 h 5 -5 c 0,179.488 145.512,325 325,325 v -5 5 c 179.488,0 325,-145.512 325,-325 h -5 5 m -10,0 v 0 c 0,173.969 -141.031,315 -315,315 v 0 C 156.031,655 15,513.969 15,340 v 0 C 15,166.031 156.031,25 330,25 v 0 c 173.969,0 315,141.031 315,315"
             style="fill:#000000;fill-opacity:1;fill-rule:nonzero;stroke:none"
             id="path62"
             inkscape:connector-curvature="0" /></g></g><g
         id="g64"
         transform="scale(10)"><text
           transform="matrix(1,0,0,-1,21,26)"
           style="font-style:oblique;font-variant:normal;font-size:26px;font-family:Helvetica;-inkscape-font-specification:Helvetica-Oblique;writing-mode:lr-tb;fill:#000000;fill-opacity:1;fill-rule:nonzero;stroke:none"
           id="text68"><tspan
             x="0"
             y="0"
             id="tspan66">M<tspan
   style="font-size:65%;baseline-shift:sub"
   id="tspan953">0</tspan></tspan></text>
</g><g
         id="g70"><g
           id="g72"
           clip-path="url(#clipPath76)"><path
             d="m 1271.16,344.859 v 0 l 710,-170 4.87,-1.16 -2.33,-9.73 -4.86,1.172 -710,170 -4.87,1.16 2.33,9.73"
             style="fill:#000000;fill-opacity:1;fill-rule:nonzero;stroke:none"
             id="path78"
             inkscape:connector-curvature="0" /></g></g><g
         id="g80"><g
           id="g82"
           clip-path="url(#clipPath86)"><path
             d="m 1649.31,249.18 -53.28,-7.809 14.38,17.117 -5.07,21.782 z"
             style="fill:#000000;fill-opacity:1;fill-rule:nonzero;stroke:none"
             id="path88"
             inkscape:connector-curvature="0" /></g></g><g
         id="g90"><g
           id="g92"
           clip-path="url(#clipPath96)"><path
             d="m 1650.04,244.23 v 0 l -53.28,-7.808 -13.02,-1.902 8.46,10.07 14.38,17.121 3.83,-3.223 -4.87,-1.129 -5.07,21.782 -2.98,12.808 10.74,-7.597 43.97,-31.09 10.21,-7.223 -12.37,-1.809 m -1.45,9.899 0.72,-4.949 -2.88,-4.078 -43.97,31.089 2.88,4.079 4.87,1.128 5.07,-21.769 0.57,-2.438 -1.61,-1.91 -14.38,-17.121 -3.83,3.211 -0.72,4.949 53.28,7.809"
             style="fill:#000000;fill-opacity:1;fill-rule:nonzero;stroke:none"
             id="path98"
             inkscape:connector-curvature="0" /></g></g><g
         id="g100"><g
           id="g102"
           clip-path="url(#clipPath106)"><path
             d="m 1265.05,339.309 v 0 c -5.42,38.921 6.26,84.57 59.05,100.339 l 1.43,-4.789 -1.43,4.789 c 57.41,17.153 96.8,-22.109 109,-62.949 v 0 c 9.77,-32.687 2.99,-70.578 -30.2,-80.5 l -1.43,4.789 1.43,-4.789 c -31.36,-9.359 -56.79,15.153 -66.01,46 v 0 c -12.78,42.801 3.31,102.262 75.21,123.742 l 1.43,-4.793 -1.43,4.793 c 71.91,21.481 117.98,-19.421 130.76,-62.222 v 0 c 9.22,-30.848 1.39,-65.289 -29.96,-74.66 v 0 0 c -31.36,-9.368 -56.79,15.14 -66.01,45.992 v 0 c -12.78,42.801 3.31,102.269 75.21,123.75 l 1.43,-4.789 -1.43,4.789 c 71.91,21.469 117.98,-19.422 130.76,-62.219 v 0 c 9.22,-30.852 1.39,-65.301 -29.96,-74.66 l -1.43,4.789 1.43,-4.789 c -31.36,-9.371 -56.79,15.137 -66.01,45.988 v 0 c -12.78,42.801 3.31,102.27 75.21,123.738 l 1.43,-4.789 -1.43,4.789 c 71.91,21.481 117.98,-19.41 130.76,-62.207 v 0 c 9.22,-30.851 1.39,-65.3 -29.96,-74.66 l -1.43,4.789 1.43,-4.789 c -31.36,-9.371 -56.79,15.141 -66.01,45.989 v 0 c -12.78,42.8 3.31,102.261 75.21,123.742 v 0 0 c 71.91,21.476 117.98,-19.422 130.76,-62.223 v 0 c 9.22,-30.848 1.39,-65.289 -29.96,-74.66 l -1.43,4.793 1.43,-4.793 c -31.36,-9.359 -56.79,15.152 -66.01,46 v 0 c -12.78,42.801 3.31,102.262 75.21,123.742 l 1.43,-4.789 -1.43,4.789 c 71.91,21.481 117.98,-19.422 130.76,-62.223 v 0 c 9.22,-30.847 1.39,-65.289 -29.96,-74.66 v 0 0 c -33.2,-9.918 -59.65,18.051 -69.41,50.742 v 0 c -12.2,40.84 -0.79,95.282 56.61,112.418 v 0 0 c 52.8,15.774 87.6,-15.988 104.42,-51.507 l 2.14,-4.52 -9.04,-4.281 -2.14,4.519 c -15.65,33.063 -46.31,60.012 -92.51,46.211 l -1.44,4.789 1.44,-4.789 c -50.3,-15.019 -61.12,-62.41 -49.9,-99.968 v 0 c 9.29,-31.114 32.13,-51.454 56.96,-44.032 l 1.44,-4.789 -1.44,4.789 c 23.45,7 31.8,33.59 23.25,62.219 v 0 c -11.38,38.102 -52.28,75.223 -118.31,55.5 v 0 c -66.04,-19.73 -79.88,-73.199 -68.5,-111.301 v 0 c 8.55,-28.629 30.12,-46.277 53.56,-39.277 v 0 c 23.45,7.008 31.8,33.598 23.25,62.219 v 0 c -11.38,38.101 -52.28,75.218 -118.31,55.5 l -1.44,4.789 1.44,-4.789 c -66.04,-19.731 -79.88,-73.2 -68.5,-111.301 v 0 c 8.55,-28.617 30.12,-46.277 53.56,-39.27 v 0 c 23.45,7 31.8,33.59 23.25,62.211 v 0 c -11.38,38.102 -52.28,75.231 -118.31,55.5 v 0 c -66.04,-19.718 -79.88,-73.191 -68.5,-111.3 v 0 c 8.55,-28.622 30.12,-46.27 53.56,-39.27 v 0 0 c 23.45,7 31.8,33.59 23.25,62.219 v 0 c -11.38,38.101 -52.28,75.222 -118.31,55.492 v 0 c -66.04,-19.723 -79.88,-73.191 -68.5,-111.289 v 0 c 8.55,-28.633 30.12,-46.281 53.56,-39.281 l 1.44,-4.789 -1.44,4.789 c 23.45,7.007 31.8,33.589 23.25,62.218 v 0 c -11.38,38.102 -52.28,75.223 -118.31,55.5 v 0 0 c -66.04,-19.73 -79.88,-73.199 -68.5,-111.3 v 0 c 8.55,-28.629 30.12,-46.278 53.56,-39.27 v 0 c 24.84,7.41 32.78,36.941 23.49,68.051 v 0 c -11.22,37.57 -46.25,71.262 -96.55,56.23 v 0 0 c -46.21,-13.8 -57.06,-53.148 -52.02,-89.379 l 0.69,-4.953 -9.9,-1.379"
             style="fill:#000000;fill-opacity:1;fill-rule:nonzero;stroke:none"
             id="path108"
             inkscape:connector-curvature="0" /></g></g><g
         id="g110"
         transform="scale(10)"><text
           transform="matrix(1,0,0,-1,158,6)"
           style="font-style:oblique;font-variant:normal;font-size:18px;font-family:Helvetica;-inkscape-font-specification:Helvetica-Oblique;writing-mode:lr-tb;fill:#000000;fill-opacity:1;fill-rule:nonzero;stroke:none"
           id="text116"><tspan
             x="0"
             y="0"
             id="tspan112">p</tspan><tspan
             x="1"
             y="-56"
             id="tspan114">k</tspan></text>
</g><g
         id="g118"><g
           id="g120"
           clip-path="url(#clipPath124)"><path
             d="m 1548.53,544.781 v 0 l 260,80 4.78,1.469 2.94,-9.559 -4.78,-1.472 -260,-80 -4.78,-1.469 -2.94,9.559"
             style="fill:#000000;fill-opacity:1;fill-rule:nonzero;stroke:none"
             id="path126"
             inkscape:connector-curvature="0" /></g></g><g
         id="g128"><g
           id="g130"
           clip-path="url(#clipPath134)"><path
             d="m 1703.89,587.352 -41.9,-33.821 3.67,22.059 -15.44,16.172 z"
             style="fill:#000000;fill-opacity:1;fill-rule:nonzero;stroke:none"
             id="path136"
             inkscape:connector-curvature="0" /></g></g><g
         id="g138"><g
           id="g140"
           clip-path="url(#clipPath144)"><path
             d="m 1707.03,583.461 v 0 l -41.9,-33.82 -10.24,-8.262 2.17,12.973 3.67,22.058 4.93,-0.82 -3.61,-3.449 -15.44,16.168 -9.08,9.511 13.1,-1.07 53.67,-4.41 12.46,-1.031 -9.73,-7.848 m -6.28,7.777 3.14,-3.886 -0.4,-4.981 -53.68,4.41 0.41,4.981 3.62,3.457 15.44,-16.18 1.73,-1.809 -0.41,-2.46 -3.68,-22.059 -4.93,0.82 -3.14,3.891 41.9,33.816"
             style="fill:#000000;fill-opacity:1;fill-rule:nonzero;stroke:none"
             id="path146"
             inkscape:connector-curvature="0" /></g></g></g></g></svg>